<svg width="180" height="41" viewBox="0 0 180 41" fill="none" xmlns="http://www.w3.org/2000/svg">
<path d="M80.1322 0C81.1115 0 81.8979 0.326434 82.4914 0.979301C83.1146 1.60249 83.4262 2.41858 83.4262 3.42755V28.7113C83.4262 29.6906 83.1443 30.4622 82.5804 31.026C82.0166 31.5899 81.2747 31.8718 80.3548 31.8718C79.4645 31.8718 78.7374 31.5899 78.1736 31.026C77.6097 30.4622 77.3278 29.6906 77.3278 28.7113V12.998L71.0069 24.8831C70.5914 25.6547 70.1315 26.2185 69.627 26.5747C69.1522 26.9308 68.5735 27.1088 67.8909 27.1088C67.2381 27.1088 66.6594 26.9308 66.1549 26.5747C65.6504 26.2185 65.1904 25.6547 64.775 24.8831L58.454 13.2206V28.7113C58.454 29.6609 58.1721 30.4325 57.6083 31.026C57.0444 31.5899 56.3025 31.8718 55.3826 31.8718C54.4923 31.8718 53.7653 31.5899 53.2014 31.026C52.6376 30.4622 52.3557 29.6906 52.3557 28.7113V3.42755C52.3557 2.41858 52.6524 1.60249 53.2459 0.979301C53.8691 0.326434 54.6704 0 55.6497 0C57.0741 0 58.1573 0.756732 58.8992 2.2702L67.9354 19.408L76.9272 2.2702C77.7285 0.756732 78.7968 0 80.1322 0Z" fill="#FF298A"/>
<path d="M105.54 9.30335C106.579 9.30335 107.395 9.58527 107.989 10.1491C108.612 10.713 108.923 11.4845 108.923 12.4638V28.8003C108.923 29.7203 108.597 30.4622 107.944 31.026C107.321 31.5899 106.505 31.8718 105.496 31.8718C104.546 31.8718 103.79 31.6047 103.226 31.0705C102.662 30.5364 102.38 29.8242 102.38 28.9339V28.4887C101.697 29.6164 100.792 30.477 99.6646 31.0705C98.5666 31.664 97.3203 31.9608 95.9255 31.9608C93.1656 31.9608 91.1032 31.2041 89.7381 29.6906C88.4027 28.1475 87.735 25.8328 87.735 22.7465V12.4638C87.735 11.4845 88.0317 10.713 88.6253 10.1491C89.2484 9.58527 90.0794 9.30335 91.118 9.30335C92.1567 9.30335 92.9728 9.58527 93.5663 10.1491C94.1598 10.713 94.4565 11.4845 94.4565 12.4638V22.88C94.4565 24.1858 94.7236 25.1502 95.2578 25.7734C95.8216 26.3966 96.6674 26.7082 97.7951 26.7082C99.1008 26.7082 100.154 26.2631 100.956 25.3728C101.786 24.4825 102.202 23.3103 102.202 21.8562V12.4638C102.202 11.4845 102.499 10.713 103.092 10.1491C103.686 9.58527 104.502 9.30335 105.54 9.30335Z" fill="#FF298A"/>
<path d="M126.456 9.21433C129.067 9.21433 131.011 9.9859 132.287 11.529C133.563 13.0425 134.201 15.3424 134.201 18.4287V28.7113C134.201 29.6906 133.89 30.4622 133.267 31.026C132.673 31.5899 131.857 31.8718 130.818 31.8718C129.78 31.8718 128.964 31.5899 128.37 31.026C127.777 30.4622 127.48 29.6906 127.48 28.7113V18.7403C127.48 17.2565 127.198 16.1733 126.634 15.4908C126.1 14.8082 125.254 14.4669 124.097 14.4669C122.702 14.4669 121.574 14.9121 120.714 15.8023C119.883 16.6926 119.467 17.8797 119.467 19.3634V28.7113C119.467 29.6906 119.171 30.4622 118.577 31.026C117.984 31.5899 117.167 31.8718 116.129 31.8718C115.09 31.8718 114.259 31.5899 113.636 31.026C113.043 30.4622 112.746 29.6906 112.746 28.7113V12.3748C112.746 11.4548 113.057 10.713 113.681 10.1491C114.333 9.58527 115.164 9.30335 116.173 9.30335C117.093 9.30335 117.835 9.58527 118.399 10.1491C118.992 10.6833 119.289 11.3807 119.289 12.2413V12.8644C120.061 11.6774 121.055 10.7723 122.272 10.1491C123.518 9.52592 124.913 9.21433 126.456 9.21433Z" fill="#FF298A"/>
<path d="M147.988 31.9608C145.733 31.9608 143.76 31.5008 142.068 30.5809C140.377 29.6609 139.071 28.3552 138.151 26.6637C137.261 24.9722 136.815 22.9839 136.815 20.6989C136.815 18.4138 137.29 16.4107 138.24 14.6895C139.219 12.9386 140.584 11.5884 142.335 10.6388C144.086 9.68914 146.104 9.21433 148.389 9.21433C149.576 9.21433 150.763 9.37754 151.95 9.70398C153.167 10.0304 154.25 10.4904 155.2 11.0839C156.12 11.6477 156.58 12.4787 156.58 13.5767C156.58 14.3482 156.401 14.9863 156.045 15.4908C155.689 15.9656 155.214 16.203 154.621 16.203C154.235 16.203 153.864 16.1436 153.508 16.0249C153.182 15.8765 152.737 15.6688 152.173 15.4017C151.549 15.0753 150.986 14.823 150.481 14.645C150.006 14.4669 149.457 14.3779 148.834 14.3779C147.172 14.3779 145.896 14.9121 145.006 15.9804C144.145 17.0191 143.715 18.5474 143.715 20.5653C143.715 22.5833 144.145 24.1264 145.006 25.1947C145.896 26.2631 147.172 26.7972 148.834 26.7972C149.457 26.7972 150.006 26.723 150.481 26.5747C150.956 26.3966 151.535 26.1295 152.217 25.7734C152.781 25.5063 153.226 25.3134 153.553 25.1947C153.879 25.0464 154.235 24.9722 154.621 24.9722C155.185 24.9722 155.645 25.2244 156.001 25.7289C156.387 26.2334 156.58 26.8714 156.58 27.643C156.58 28.741 156.12 29.5571 155.2 30.0912C154.25 30.6847 153.152 31.1447 151.906 31.4712C150.659 31.7976 149.353 31.9608 147.988 31.9608Z" fill="#FF298A"/>
<path d="M172.388 9.21433C177.463 9.21433 180 12.2858 180 18.4287V28.7113C180 29.6906 179.688 30.4622 179.065 31.026C178.472 31.5899 177.656 31.8718 176.617 31.8718C175.578 31.8718 174.762 31.5899 174.169 31.026C173.575 30.4622 173.278 29.6906 173.278 28.7113V18.3396C173.278 17.0339 172.996 16.0694 172.433 15.4462C171.898 14.7934 171.053 14.4669 169.895 14.4669C168.501 14.4669 167.373 14.9121 166.512 15.8023C165.681 16.6926 165.266 17.8797 165.266 19.3634V28.7113C165.266 29.6906 164.969 30.4622 164.376 31.026C163.782 31.5899 162.966 31.8718 161.927 31.8718C160.889 31.8718 160.058 31.5899 159.435 31.026C158.841 30.4622 158.544 29.6906 158.544 28.7113V3.07144C158.544 2.15149 158.856 1.4096 159.479 0.845759C160.132 0.28192 160.978 0 162.016 0C162.996 0 163.782 0.267082 164.376 0.801246C164.969 1.33541 165.266 2.04763 165.266 2.9379V12.6419C166.038 11.5142 167.032 10.6684 168.248 10.1046C169.465 9.51109 170.845 9.21433 172.388 9.21433Z" fill="#FF298A"/>
<path d="M20.0311 9.43693C21.0401 9.43693 21.8414 9.73368 22.4349 10.3272C23.0581 10.891 23.3697 11.6478 23.3697 12.5974V29.379C23.3697 32.9105 22.3459 35.5813 20.2982 37.3915C18.2506 39.2017 15.2533 40.1068 11.3065 40.1068C7.98278 40.1068 5.25261 39.5133 3.11596 38.3263C2.58179 38.0295 2.16633 37.6586 1.86957 37.2135C1.57282 36.798 1.42444 36.3232 1.42444 35.789C1.42444 35.0471 1.60249 34.4388 1.9586 33.964C2.31471 33.4891 2.78952 33.2517 3.38304 33.2517C3.70947 33.2517 4.09526 33.3111 4.54039 33.4298C4.98553 33.5782 5.4455 33.7414 5.92032 33.9194C6.86994 34.2756 7.74538 34.5575 8.54662 34.7652C9.34787 34.9729 10.2085 35.0768 11.1284 35.0768C13.0277 35.0768 14.4373 34.6465 15.3572 33.7859C16.2772 32.9253 16.7371 31.6196 16.7371 29.8687V27.465C16.1139 28.5926 15.1792 29.4829 13.9328 30.1358C12.6864 30.7886 11.2916 31.1151 9.74849 31.1151C7.84924 31.1151 6.15772 30.6699 4.67393 29.7797C3.21982 28.8894 2.0773 27.6282 1.24638 25.996C0.415461 24.3342 0 22.4201 0 20.2537C0 18.0874 0.415461 16.1882 1.24638 14.556C2.0773 12.8942 3.21982 11.6181 4.67393 10.7278C6.15772 9.80787 7.84924 9.3479 9.74849 9.3479C11.262 9.3479 12.627 9.67433 13.8437 10.3272C15.0901 10.9504 16.0398 11.8258 16.6926 12.9535V12.5084C16.6926 11.5587 16.9894 10.8169 17.5829 10.2827C18.2061 9.71885 19.0222 9.43693 20.0311 9.43693ZM11.7071 25.996C13.2799 25.996 14.4966 25.4915 15.3572 24.4825C16.2475 23.4736 16.6926 22.064 16.6926 20.2537C16.6926 18.4435 16.2475 17.0339 15.3572 16.0249C14.4966 14.9863 13.2799 14.467 11.7071 14.467C10.1343 14.467 8.90273 14.9863 8.01246 16.0249C7.12219 17.0339 6.67705 18.4435 6.67705 20.2537C6.67705 22.064 7.12219 23.4736 8.01246 24.4825C8.90273 25.4915 10.1343 25.996 11.7071 25.996Z" fill="white"/>
<path d="M37.4888 32.0944C35.1741 32.0944 33.1413 31.6344 31.3905 30.7145C29.6396 29.7648 28.2894 28.4443 27.3397 26.7527C26.3901 25.0315 25.9153 23.0136 25.9153 20.6989C25.9153 18.3842 26.3901 16.3811 27.3397 14.6895C28.2894 12.9683 29.6396 11.6478 31.3905 10.7278C33.1413 9.80787 35.1741 9.3479 37.4888 9.3479C39.8036 9.3479 41.8363 9.80787 43.5872 10.7278C45.3381 11.6478 46.6883 12.9683 47.638 14.6895C48.5876 16.3811 49.0624 18.3842 49.0624 20.6989C49.0624 23.0136 48.5876 25.0315 47.638 26.7527C46.6883 28.4443 45.3381 29.7648 43.5872 30.7145C41.8363 31.6344 39.8036 32.0944 37.4888 32.0944ZM37.4888 26.9753C40.7532 26.9753 42.3854 24.8832 42.3854 20.6989C42.3854 18.5919 41.955 17.0191 41.0945 15.9804C40.2635 14.9418 39.0617 14.4225 37.4888 14.4225C34.2245 14.4225 32.5923 16.5146 32.5923 20.6989C32.5923 24.8832 34.2245 26.9753 37.4888 26.9753Z" fill="white"/>
</svg>
