<svg width="3257" height="831" viewBox="0 0 3257 831" fill="none" xmlns="http://www.w3.org/2000/svg">
<g clip-path="url(#clip0)">
<path d="M987.324 532.247V381.387H1037.74L1056.1 447.777L1064.86 482.243C1068.81 465.575 1071.64 453.992 1073.33 447.777L1092.4 381.387H1143.95V532.247H1108.92V455.97V425.6C1105.39 440.714 1103.13 450.178 1102 453.851L1080.11 532.247H1049.32L1027.71 453.992L1020.79 425.741C1020.79 441.985 1020.79 452.156 1020.79 456.252V532.388L987.324 532.247Z" fill="#616160"/>
<path d="M1178.12 532.247L1232.64 381.387H1271.05L1325.71 532.953H1286.44L1277.55 505.55H1224.59L1215.83 532.953L1178.12 532.247ZM1233.2 478.005H1268.79L1256.93 441.279L1251 419.95C1248.6 428.99 1246.62 436.053 1244.92 441.279L1233.2 478.005Z" fill="#616160"/>
<path d="M1361.15 532.244V381.384H1433.6C1447.26 380.778 1460.72 384.865 1471.74 392.967C1476.42 396.6 1480.2 401.273 1482.78 406.617C1485.35 411.961 1486.65 417.83 1486.56 423.761C1487.08 431.971 1484.75 440.108 1479.96 446.799C1475.18 453.49 1468.23 458.324 1460.3 460.487C1466.41 462.381 1471.8 466.105 1475.74 471.155C1479.68 476.206 1481.98 482.342 1482.33 488.738C1483.33 494.765 1483.95 500.852 1484.16 506.959C1484.16 514.305 1485.01 519.672 1485.58 523.345C1486.14 527.018 1487.13 528.995 1488.68 529.56V531.538H1452.25C1451.12 531.538 1450.27 528.713 1449.7 525.322C1448.84 520.654 1448.28 515.936 1448.01 511.197C1448.01 504.982 1447.16 500.179 1446.6 497.072C1446.46 493.955 1445.69 490.899 1444.32 488.094C1442.95 485.29 1441.03 482.796 1438.65 480.769C1436.28 478.742 1433.52 477.225 1430.54 476.311C1427.55 475.398 1424.42 475.108 1421.32 475.46H1398.16V531.961L1361.15 532.244ZM1398.72 447.491H1426.97C1432.96 447.928 1438.91 446.226 1443.77 442.689C1445.76 440.944 1447.3 438.756 1448.29 436.302C1449.27 433.847 1449.66 431.196 1449.42 428.563C1449.59 425.949 1449.18 423.33 1448.23 420.89C1447.28 418.45 1445.81 416.247 1443.91 414.438C1439.44 410.648 1433.66 408.771 1427.81 409.211H1398.16L1398.72 447.491Z" fill="#616160"/>
<path d="M1528.37 532.246V381.387H1565.79V532.246H1528.37ZM1533.03 373.335L1542.07 345.791H1581.75L1559.3 373.335H1533.03Z" fill="#616160"/>
<path d="M1600.82 532.247L1655.19 381.387H1693.75L1748.4 532.953H1708.86L1699.96 505.55H1647L1638.25 532.247H1600.82ZM1655.9 478.005H1691.49L1680.05 441.279L1674.12 419.95C1671.72 428.99 1669.6 436.053 1667.9 441.279L1655.9 478.005Z" fill="#616160"/>
<path d="M1886.81 534.931C1872.43 535.939 1858.24 531.274 1847.26 521.935C1842.59 517.347 1838.93 511.839 1836.5 505.76C1834.07 499.682 1832.92 493.165 1833.14 486.622V473.344H1867.17V485.774C1867.17 497.922 1872.68 503.996 1883.7 503.996C1894.71 503.996 1899.94 498.063 1899.37 486.198V381.387H1936.94V487.752C1937.57 499.698 1933.69 511.443 1926.07 520.664C1920.89 525.658 1914.71 529.508 1907.95 531.966C1901.19 534.423 1893.98 535.434 1886.81 534.931Z" fill="#616160"/>
<path d="M2104.3 513.602C2089.76 527.803 2070.24 535.754 2049.92 535.754C2029.6 535.754 2010.09 527.803 1995.55 513.602C1981.73 498.095 1974.4 477.865 1975.07 457.1C1974.4 436.336 1981.73 416.106 1995.55 400.598C2010.04 386.296 2029.57 378.276 2049.92 378.276C2070.28 378.276 2089.81 386.296 2104.3 400.598C2118.21 416.061 2125.6 436.309 2124.92 457.1C2125.6 477.891 2118.21 498.139 2104.3 513.602ZM2050.07 505.268C2055.44 505.448 2060.77 504.244 2065.54 501.77C2070.31 499.296 2074.37 495.637 2077.32 491.142C2084.06 480.741 2087.37 468.49 2086.78 456.111C2087.36 443.689 2084.05 431.396 2077.32 420.939C2074.15 416.727 2070.04 413.31 2065.33 410.957C2060.61 408.603 2055.41 407.378 2050.14 407.378C2044.86 407.378 2039.66 408.603 2034.95 410.957C2030.23 413.31 2026.12 416.727 2022.95 420.939C2016.06 431.336 2012.65 443.651 2013.2 456.111C2012.66 468.482 2016.07 480.704 2022.95 491.001C2025.9 495.574 2029.99 499.295 2034.82 501.798C2039.65 504.301 2045.05 505.497 2050.49 505.268H2050.07Z" fill="#616160"/>
<path d="M2225.05 535.78C2207.82 536.768 2190.73 532.16 2176.32 522.643C2170.34 518.311 2165.51 512.587 2162.24 505.967C2158.96 499.346 2157.35 492.029 2157.54 484.646H2195.25C2196.85 499.054 2206.74 506.258 2224.91 506.258C2230.9 506.473 2236.84 505.109 2242.14 502.303C2244.35 501.245 2246.21 499.553 2247.47 497.441C2248.72 495.329 2249.33 492.892 2249.2 490.437C2249.23 488.652 2248.85 486.885 2248.09 485.269C2247.33 483.654 2246.21 482.233 2244.82 481.114C2242.15 478.876 2239.08 477.152 2235.78 476.029C2232.82 475.041 2227.03 473.487 2218.55 471.368H2217.7H2216.15L2200.19 466.141C2195.37 464.608 2190.65 462.768 2186.07 460.633C2181.43 458.588 2177.14 455.823 2173.36 452.44C2170.02 449.051 2167.34 445.076 2165.45 440.716C2163.25 435.536 2162.14 429.958 2162.2 424.33C2161.76 417.555 2163.07 410.779 2165.98 404.648C2168.9 398.517 2173.33 393.234 2178.87 389.299C2191.81 381.014 2207.01 376.966 2222.36 377.716C2237.39 377.057 2252.23 381.214 2264.73 389.582C2270.22 393.553 2274.67 398.781 2277.71 404.826C2280.76 410.872 2282.31 417.56 2282.25 424.33H2245.53C2245.38 421.587 2244.65 418.907 2243.39 416.471C2242.12 414.034 2240.34 411.897 2238.18 410.205C2233.17 406.888 2227.24 405.255 2221.23 405.543C2215.71 405.307 2210.23 406.629 2205.42 409.357C2203.6 410.405 2202.09 411.906 2201.02 413.713C2199.96 415.52 2199.38 417.572 2199.34 419.669C2199.3 421.946 2199.97 424.18 2201.26 426.055C2202.56 427.931 2204.4 429.353 2206.55 430.122C2215.33 433.543 2224.4 436.143 2233.66 437.891C2242 439.868 2248.92 441.846 2254.28 443.682C2260.02 445.813 2265.52 448.56 2270.66 451.875C2276.12 455.277 2280.49 460.181 2283.23 466C2286.1 472.291 2287.5 479.149 2287.33 486.058C2287.69 493.147 2286.26 500.212 2283.17 506.604C2280.09 512.997 2275.45 518.512 2269.68 522.643C2256.66 531.829 2240.97 536.448 2225.05 535.78Z" fill="#616160"/>
<path d="M2327.16 532.246V381.387H2441.97V412.321H2364.72V439.442H2430.96V468.682H2364.72V501.17H2443.24V532.953L2327.16 532.246ZM2372.63 373.335L2381.81 345.791H2421.35L2398.9 373.335H2372.63Z" fill="#616160"/>
<path d="M2532.08 532.247L2586.45 381.387H2625.01L2679.66 532.953H2640.96L2632.07 505.55H2579.11L2570.35 532.247H2532.08ZM2587.16 478.005H2622.75L2611.31 441.279L2605.37 419.95C2602.97 428.99 2600.86 436.053 2599.16 441.279L2587.16 478.005Z" fill="#616160"/>
<path d="M2715.11 532.244V381.384H2787.56C2801.22 380.778 2814.67 384.865 2825.69 392.967C2830.43 396.801 2834.18 401.711 2836.63 407.288C2839.09 412.866 2840.18 418.949 2839.81 425.032C2840.33 433.242 2838 441.379 2833.21 448.07C2828.43 454.761 2821.48 459.596 2813.54 461.758C2819.66 463.653 2825.05 467.376 2828.99 472.427C2832.93 477.477 2835.23 483.613 2835.58 490.009C2836.51 496.046 2837.13 502.128 2837.41 508.231C2837.55 513.711 2837.97 519.181 2838.68 524.616C2838.68 528.148 2840.38 530.266 2841.93 530.832V532.809H2806.2C2805.07 532.809 2804.22 529.984 2803.52 526.594C2802.81 523.204 2802.39 518.401 2801.96 512.468C2801.54 506.536 2800.97 501.451 2800.41 498.343C2800.29 495.232 2799.54 492.179 2798.19 489.375C2796.83 486.571 2794.92 484.076 2792.56 482.047C2790.2 480.018 2787.44 478.499 2784.47 477.584C2781.5 476.669 2778.36 476.379 2775.27 476.731H2752.53V533.233L2715.11 532.244ZM2752.53 447.491H2780.78C2786.73 447.931 2792.64 446.227 2797.44 442.689C2799.45 440.951 2801.01 438.768 2802.02 436.315C2803.03 433.862 2803.44 431.207 2803.23 428.563C2803.4 425.949 2803 423.33 2802.05 420.89C2801.09 418.45 2799.62 416.247 2797.73 414.438C2793.25 410.648 2787.47 408.771 2781.63 409.211H2752.53V447.491Z" fill="#616160"/>
<path d="M2882.18 532.247V381.387H2919.75V532.247H2882.18Z" fill="#616160"/>
<path d="M2954.63 532.247L3009.14 381.387H3047.7L3102.35 532.953H3062.95L3054.05 505.55H3001.09L2992.34 532.953L2954.63 532.247ZM3009.71 478.005H3045.3L3033.86 441.279L3027.93 419.95C3025.53 428.99 3023.55 436.053 3021.85 441.279L3009.71 478.005Z" fill="#616160"/>
<path d="M3194.86 535.78C3177.61 536.726 3160.52 532.069 3146.14 522.502C3140.16 518.17 3135.32 512.446 3132.05 505.826C3128.78 499.205 3127.16 491.888 3127.35 484.505H3165.06C3166.57 498.913 3176.45 506.117 3194.72 506.117C3200.71 506.332 3206.65 504.968 3211.95 502.162C3214.17 501.104 3216.02 499.412 3217.28 497.3C3218.53 495.188 3219.14 492.751 3219.01 490.296C3219.04 488.511 3218.66 486.744 3217.9 485.128C3217.14 483.513 3216.02 482.091 3214.63 480.973C3211.96 478.735 3208.89 477.011 3205.59 475.888C3202.63 474.899 3196.84 473.346 3188.36 471.227H3187.52H3185.96L3170 466.142C3165.18 464.608 3160.47 462.768 3155.88 460.633C3151.24 458.588 3146.95 455.823 3143.17 452.44C3139.84 449.051 3137.16 445.077 3135.26 440.716C3133.06 435.536 3131.96 429.958 3132.01 424.33C3131.7 417.537 3133.14 410.777 3136.18 404.694C3139.22 398.612 3143.76 393.409 3149.38 389.582C3162.33 381.297 3177.53 377.249 3192.88 377.999C3207.91 377.34 3222.75 381.497 3235.25 389.864C3240.73 393.836 3245.18 399.063 3248.23 405.109C3251.28 411.155 3252.83 417.843 3252.76 424.613H3216.04C3215.9 421.87 3215.17 419.19 3213.9 416.753C3212.64 414.317 3210.86 412.18 3208.7 410.487C3203.69 407.17 3197.75 405.538 3191.75 405.826C3186.23 405.59 3180.75 406.912 3175.94 409.64C3174.12 410.688 3172.61 412.189 3171.54 413.996C3170.48 415.803 3169.9 417.855 3169.86 419.951C3169.82 422.229 3170.49 424.463 3171.78 426.338C3173.07 428.213 3174.92 429.636 3177.07 430.404C3185.84 433.825 3194.92 436.426 3204.18 438.173C3212.51 440.151 3219.43 442.128 3224.8 443.965C3230.54 446.096 3236.03 448.843 3241.18 452.157C3246.64 455.56 3251.01 460.464 3253.75 466.283C3256.61 472.574 3258.01 479.431 3257.85 486.341C3258.08 493.447 3256.52 500.496 3253.31 506.84C3250.1 513.184 3245.35 518.619 3239.49 522.643C3226.47 531.829 3210.78 536.448 3194.86 535.78Z" fill="#616160"/>
<path d="M995.093 635.645V766.87H989.444V635.645H995.093Z" fill="#444444"/>
<path d="M1136.32 635.645V766.87H1129.83L1045.09 645.674V767.435H1039.58V635.645H1045.09L1129.83 757.406V635.645H1136.32Z" fill="#444444"/>
<path d="M1224.02 767.435H1218.23V641.578H1171.34V635.645H1270.2V641.013H1224.02V767.435Z" fill="#444444"/>
<path d="M1311.58 641.295V696.949H1385.73V702.176H1311.58V762.774H1394.06V768H1305.93V635.645H1392.22V640.73L1311.58 641.295Z" fill="#444444"/>
<path d="M1437.98 706.273V767.436H1432.19V635.646H1484.73C1494.94 635.052 1505.01 638.274 1512.97 644.686C1516.4 648.023 1519.07 652.058 1520.8 656.519C1522.53 660.979 1523.28 665.76 1523 670.536C1523.79 678.042 1521.69 685.567 1517.12 691.577C1512.55 697.587 1505.87 701.63 1498.43 702.883C1501.69 703.473 1504.79 704.715 1507.56 706.536C1510.33 708.356 1512.7 710.717 1514.53 713.477C1518.26 720.468 1520.16 728.294 1520.04 736.219C1520.04 753.876 1522.3 763.764 1525.4 766.165H1519.19C1516.36 764.187 1514.67 754.158 1514.25 735.654C1514.66 727.214 1512.05 718.902 1506.9 712.206C1503.85 709.54 1500.28 707.526 1496.42 706.287C1492.56 705.049 1488.48 704.611 1484.45 705.002L1437.98 706.273ZM1437.98 641.296V701.047H1482.89C1506.05 701.047 1517.63 691.018 1517.63 671.242C1517.88 667.164 1517.23 663.083 1515.74 659.279C1514.26 655.474 1511.96 652.038 1509.02 649.206C1502.08 643.527 1493.25 640.699 1484.3 641.296H1437.98Z" fill="#444444"/>
<path d="M1654.2 767.435L1636.97 722.658H1575.68L1558.31 767.435H1552.24L1602.94 635.645H1610L1660.7 766.87L1654.2 767.435ZM1606.33 643.131L1578.08 717.714H1635.56L1607.31 643.131H1606.33Z" fill="#444444"/>
<path d="M1790.06 673.077H1784.13C1782.53 663.573 1777.5 654.984 1770.01 648.923C1761.5 642.251 1750.88 638.844 1740.07 639.317C1732.61 638.962 1725.17 640.362 1718.36 643.404C1711.54 646.446 1705.53 651.046 1700.81 656.833C1690.98 669.738 1685.98 685.683 1686.69 701.893C1685.88 718.116 1690.89 734.094 1700.81 746.953C1705.5 752.647 1711.45 757.169 1718.19 760.16C1724.93 763.152 1732.28 764.53 1739.65 764.186C1745.65 764.472 1751.64 763.515 1757.25 761.376C1762.87 759.237 1767.98 755.962 1772.27 751.756C1780.42 743.221 1785.4 732.156 1786.39 720.397H1791.62C1790.97 732.824 1785.97 744.625 1777.5 753.733C1772.62 759.001 1766.66 763.144 1760.03 765.876C1753.4 768.608 1746.25 769.863 1739.08 769.554C1731.08 769.795 1723.12 768.247 1715.79 765.021C1708.46 761.795 1701.94 756.974 1696.71 750.908C1686.22 736.747 1680.56 719.589 1680.56 701.964C1680.56 684.339 1686.22 667.18 1696.71 653.019C1702.03 646.822 1708.68 641.911 1716.16 638.657C1723.65 635.403 1731.77 633.89 1739.93 634.232C1752.1 633.699 1764.06 637.503 1773.68 644.968C1782.37 652.04 1788.19 662.03 1790.06 673.077Z" fill="#444444"/>
<path d="M1868.16 767.435H1862.23V641.578H1815.35V635.645H1914.91V641.013H1868.16V767.435Z" fill="#444444"/>
<path d="M1956.15 635.645V766.87H1950.5V635.645H1956.15Z" fill="#444444"/>
<path d="M1995.83 635.645L2042.16 758.819L2089.18 635.645H2094.97L2045.4 766.87H2039.19L1989.76 635.645H1995.83Z" fill="#444444"/>
<path d="M2133.67 641.295V696.949H2207.96V702.176H2133.67V762.774H2216.15V768H2128.02V635.645H2214.31V640.73L2133.67 641.295Z" fill="#444444"/>
<path d="M2303.85 767.435V635.644H2350.88C2361.89 635.244 2372.74 638.415 2381.81 644.685C2390.02 650.593 2396.23 658.874 2399.6 668.415C2403.44 679.151 2405.31 690.493 2405.11 701.893C2405.92 718.725 2400.93 735.326 2390.99 748.93C2386.02 755.007 2379.68 759.807 2372.48 762.928C2365.28 766.049 2357.44 767.4 2349.61 766.87L2303.85 767.435ZM2309.64 762.35H2349.47C2356.5 762.835 2363.55 761.641 2370.03 758.865C2376.52 756.09 2382.25 751.813 2386.75 746.388C2396.08 733.712 2400.68 718.169 2399.74 702.458C2400.62 686.617 2396.25 670.93 2387.32 657.821C2383.1 652.412 2377.63 648.107 2371.38 645.278C2365.13 642.448 2358.29 641.178 2351.44 641.577H2310.35L2309.64 762.35Z" fill="#444444"/>
<path d="M2448.89 641.295V696.949H2523.18V702.176H2448.89V762.774H2531.37V768H2443.24V635.645H2529.53V640.73L2448.89 641.295Z" fill="#444444"/>
<path d="M2559.9 725.768H2565.97C2565.97 731.109 2567.1 736.389 2569.29 741.259C2571.48 746.129 2574.68 750.479 2578.68 754.019C2588.01 761.389 2599.72 765.06 2611.59 764.331C2621.69 764.777 2631.65 761.79 2639.83 755.855C2643.23 753.137 2645.95 749.67 2647.79 745.725C2649.63 741.78 2650.53 737.464 2650.43 733.113C2650.76 729.036 2650.06 724.939 2648.38 721.208C2646.7 717.477 2644.1 714.235 2640.82 711.784C2630.26 706.027 2618.72 702.29 2606.79 700.766C2595.5 699.255 2584.67 695.354 2575.01 689.324C2571.55 686.771 2568.8 683.387 2567 679.486C2565.19 675.585 2564.41 671.293 2564.7 667.006C2564.57 662.394 2565.57 657.82 2567.61 653.683C2569.65 649.546 2572.68 645.973 2576.42 643.276C2585.42 636.982 2596.25 633.852 2607.21 634.376C2618.43 633.758 2629.48 637.276 2638.28 644.264C2646.23 651.144 2651.28 660.786 2652.4 671.244H2646.47C2646.14 666.737 2644.89 662.345 2642.8 658.337C2640.71 654.329 2637.83 650.79 2634.33 647.937C2626.72 642.145 2617.33 639.196 2607.77 639.603C2598.21 639.099 2588.74 641.728 2580.8 647.089C2577.7 649.351 2575.19 652.332 2573.49 655.777C2571.8 659.221 2570.96 663.026 2571.06 666.865C2570.81 670.491 2571.52 674.117 2573.1 677.387C2574.69 680.656 2577.1 683.456 2580.09 685.511C2589.28 690.907 2599.47 694.368 2610.03 695.681C2616.56 696.819 2623.02 698.328 2629.38 700.201C2634.35 701.751 2639.1 703.935 2643.51 706.699C2647.73 709.233 2651.15 712.904 2653.39 717.293C2655.58 722.122 2656.65 727.388 2656.5 732.69C2656.64 737.771 2655.62 742.819 2653.52 747.446C2651.41 752.073 2648.28 756.158 2644.35 759.387C2635.04 766.688 2623.4 770.353 2611.59 769.698C2598 770.567 2584.59 766.28 2574.02 757.692C2569.68 753.568 2566.19 748.623 2563.77 743.144C2561.34 737.664 2560.03 731.759 2559.9 725.768Z" fill="#444444"/>
<path d="M2700.85 635.645V766.87H2695.2V635.645H2700.85Z" fill="#444444"/>
<path d="M2848.14 707.685H2802.39V702.458H2853.79V767.435H2848.99V736.501C2846.27 745.799 2840.62 753.972 2832.89 759.808C2823.81 766.555 2812.7 769.994 2801.4 769.554C2792.97 769.952 2784.57 768.458 2776.8 765.183C2769.03 761.908 2762.09 756.934 2756.49 750.626C2745.2 737.058 2739.27 719.821 2739.82 702.176C2739.21 684.508 2744.97 667.209 2756.06 653.443C2761.6 647.035 2768.52 641.974 2776.3 638.645C2784.08 635.316 2792.52 633.807 2800.97 634.232C2813.18 633.707 2825.2 637.398 2835.01 644.685C2843.96 651.701 2850.04 661.749 2852.1 672.936H2846.31C2844.59 662.999 2839.2 654.072 2831.2 647.934C2822.47 641.492 2811.81 638.205 2800.97 638.611C2793.26 638.16 2785.55 639.552 2778.47 642.671C2771.4 645.79 2765.17 650.548 2760.3 656.551C2750.52 669.429 2745.53 685.311 2746.18 701.469C2745.5 717.502 2750.5 733.261 2760.3 745.965C2765.24 751.864 2771.49 756.522 2778.55 759.564C2785.62 762.606 2793.3 763.947 2800.97 763.48C2807.44 763.788 2813.9 762.684 2819.9 760.245C2825.9 757.805 2831.3 754.089 2835.72 749.355C2844.46 739.44 2849.06 726.545 2848.57 713.335L2848.14 707.685Z" fill="#444444"/>
<path d="M2992.76 635.645V766.87H2986.69L2901.11 645.109V766.87H2895.17V635.645H2901.53L2986.27 757.406V635.645H2992.76Z" fill="#444444"/>
<path d="M3041.77 641.295V696.949H3115.91V702.176H3041.77V762.774H3124.25V768H3036.4V635.645H3122.69V640.73L3041.77 641.295Z" fill="#444444"/>
<path d="M3168.03 706.274V767.438H3162.38V635.647H3214.91C3225.13 634.984 3235.22 638.214 3243.16 644.688C3246.63 647.994 3249.35 652.021 3251.1 656.487C3252.86 660.952 3253.62 665.748 3253.33 670.537C3254.11 678.044 3252.01 685.569 3247.45 691.579C3242.88 697.589 3236.19 701.632 3228.75 702.884C3232 703.452 3235.09 704.687 3237.84 706.51C3240.59 708.333 3242.93 710.706 3244.71 713.478C3248.5 720.454 3250.44 728.282 3250.36 736.22C3250.36 753.877 3252.62 763.765 3255.73 766.166H3249.51C3246.69 764.189 3244.99 754.16 3244.43 735.655C3244.95 727.225 3242.39 718.894 3237.23 712.207C3234.17 709.549 3230.6 707.539 3226.74 706.301C3222.88 705.063 3218.81 704.621 3214.77 705.003L3168.03 706.274ZM3168.03 641.297V701.048H3212.94C3235.96 701.048 3247.54 691.019 3247.54 671.243C3247.8 667.176 3247.17 663.101 3245.71 659.298C3244.25 655.494 3241.98 652.052 3239.06 649.208C3232.13 643.529 3223.29 640.701 3214.35 641.297H3168.03Z" fill="#444444"/>
<path d="M830.844 0H0V831H830.844V0Z" fill="#509CFF"/>
<path d="M675.069 625.614H648.942V128.398L458.566 424.75L436.676 410.624L675.069 39.8315V625.614Z" fill="white"/>
<path d="M344.738 791.023C322.81 791.051 301.111 786.563 280.993 777.839C260.875 769.114 242.768 756.34 227.801 740.312L246.725 722.514C264.324 741.288 286.939 754.617 311.886 760.918C336.832 767.22 363.063 766.23 387.464 758.065C411.865 749.9 433.41 734.904 449.544 714.856C465.677 694.808 475.72 670.552 478.48 644.965C482.152 610.641 471.137 582.813 453.342 551.455L422.837 503.993C363.803 410.483 318.469 340.28 270.452 265.98C242.206 223.603 213.96 178.826 181.76 128.115V625.614H155.351V39.5488L179.36 77.1225C221.728 144.077 257.6 199.025 292.342 252.278C340.36 326.719 385.835 396.923 444.727 490.433L475.656 538.46C496.883 570.942 506.811 609.518 503.902 648.214C500.043 684.627 483.871 718.632 458.061 744.601C432.251 770.57 398.35 786.947 361.967 791.023C356.229 791.37 350.476 791.37 344.738 791.023Z" fill="white"/>
</g>
<defs>
<clipPath id="clip0">
<rect width="3257" height="831" fill="white"/>
</clipPath>
</defs>
</svg>
