<svg width="520" height="752" viewBox="0 0 520 752" fill="none" xmlns="http://www.w3.org/2000/svg">
<path d="M519.718 586.065H493.591V88.8493L303.216 385.201L281.325 371.076L519.718 0.282715V586.065Z" fill="white"/>
<path d="M189.387 751.474C167.459 751.502 145.76 747.014 125.642 738.29C105.524 729.565 87.4174 716.791 72.45 700.763L91.3745 682.965C108.973 701.739 131.588 715.068 156.535 721.37C181.482 727.671 207.712 726.681 232.113 718.516C256.514 710.351 278.06 695.355 294.193 675.307C310.326 655.26 320.369 631.003 323.13 605.417C326.802 571.092 315.786 543.265 297.991 511.906L267.486 464.445C208.453 370.934 163.118 300.731 115.101 226.431C86.8552 184.055 58.6096 139.277 26.4096 88.5665V586.065H0V0L24.0088 37.5737C66.3772 104.528 102.249 159.476 136.991 212.729C185.009 287.17 230.484 357.374 289.376 450.884L320.305 498.911C341.532 531.393 351.46 569.969 348.551 608.665C344.693 645.078 328.52 679.083 302.71 705.052C276.9 731.021 242.999 747.398 206.617 751.474C200.879 751.821 195.125 751.821 189.387 751.474V751.474Z" fill="white"/>
</svg>
