<?xml version="1.0" encoding="utf-8"?>
<!-- Generator: Adobe Illustrator 24.1.1, SVG Export Plug-In . SVG Version: 6.00 Build 0)  -->
<svg version="1.1" id="Capa_1" xmlns="http://www.w3.org/2000/svg" xmlns:xlink="http://www.w3.org/1999/xlink" x="0px" y="0px"
	 viewBox="0 0 512 512" style="enable-background:new 0 0 512 512;" xml:space="preserve">
<style type="text/css">
	.st0{fill:#1BD6FF;}
</style>
<g>
	<path class="st0" d="M512,434.8c0-20.5-8-39.8-22.5-54.2c-2.2-2.2-4.4-4.2-6.8-6c19-36.4,29.1-77.2,29.1-118.6
		c0-57.8-18.8-112.4-54.4-157.8c-0.2-0.2-0.4-0.5-0.6-0.7c0.2-1.6,0.1-3.3-0.3-5L443,42.3c-1.2-4.4-4.5-7.7-8.8-8.8
		c-4.4-1.2-8.9,0-12.1,3.2l-13.7,13.7c-44.3-33-96.9-50.4-152.5-50.4c-41.5,0-82.5,10.1-119,29.3C122.9,11.6,101.1,0.1,76.7,0.1
		C34.4,0.1,0,34.5,0,76.8c0,21.2,8.5,41,23.9,55.6c1.7,1.7,3.6,3.2,5.4,4.7C10.1,173.5,0,214.5,0,256c0,57.8,18.8,112.4,54.4,157.8
		c0.2,0.2,0.4,0.5,0.6,0.7c-0.2,1.6-0.1,3.3,0.3,5l13.5,50.3c1.2,4.4,4.5,7.7,8.8,8.8c1.1,0.3,2.2,0.4,3.3,0.4
		c3.3,0,6.4-1.3,8.8-3.7l13.7-13.7c44.3,33,96.9,50.4,152.5,50.4c41.6,0,82.7-10.2,119.3-29.4c1.7,2.2,3.6,4.3,5.6,6.3
		c0.8,1.5,2,2.7,3.6,3.4c14,12.5,31.9,19.3,50.9,19.3c19.2,0,37.3-7,51.4-19.7c1-0.6,1.8-1.3,2.4-2.3c0.2-0.2,0.3-0.3,0.5-0.4
		C504,474.6,512,455.3,512,434.8L512,434.8z M429.7,50.4l11.2,41.9L399,81l15.4-15.4c0,0,0,0,0,0L429.7,50.4z M15,76.8
		c0-34,27.7-61.7,61.7-61.7c34,0,61.7,27.7,61.7,61.7c0,10.5-2.6,20.6-7.5,29.5c-2.8-9.5-11.3-16.6-21.5-17.2
		c1.6-4.1,2.5-8.5,2.5-13.1v-11c0-19.4-15.8-35.2-35.2-35.2S41.5,45.5,41.5,64.9v11c0,4.6,0.9,9.1,2.5,13.1
		c-10.3,0.6-18.8,7.7-21.5,17.2C17.6,97.4,15,87.3,15,76.8z M36.5,123.6V113c0-4.9,4-9,9-9h10c5.9,4.5,13.3,7.2,21.3,7.2
		s15.3-2.7,21.3-7.2h10c4.9,0,9,4,9,9v10.6c-11.2,9.6-25.3,14.9-40.2,14.9C61.9,138.5,47.7,133.2,36.5,123.6z M96.9,75.9
		c0,11.2-9.1,20.2-20.2,20.2h0c-11.2,0-20.2-9.1-20.2-20.2v-11c0-11.2,9.1-20.2,20.2-20.2c11.2,0,20.2,9.1,20.2,20.2V75.9z
		 M82.2,461.6l-11.2-41.9l41.9,11.2L82.2,461.6z M255.9,496.9c-51.6,0-100.4-15.9-141.8-46.1l12.3-12.3c3.2-3.2,4.4-7.7,3.2-12.1
		c-1.2-4.4-4.5-7.7-8.8-8.8l-50.3-13.5c-1.7-0.4-3.4-0.5-5-0.3C32.5,361.2,15,310.1,15,256c0-38.6,9.3-76.8,26.9-110.8
		c10.7,5.4,22.5,8.3,34.8,8.3c19.7,0,38.2-7.4,52.4-20.7c0.3-0.2,0.5-0.5,0.7-0.7c0.4-0.3,0.7-0.7,1.1-1
		c14.5-14.5,22.5-33.7,22.5-54.2c0-12.5-3-24.3-8.4-34.7c34.1-17.7,72.2-27,110.9-27c51.6,0,100.4,15.9,141.8,46.1l-12.3,12.3
		c-3.2,3.2-4.4,7.7-3.2,12.1c1.2,4.4,4.5,7.7,8.8,8.8l50.3,13.5c1.1,0.3,2.2,0.4,3.3,0.4c0.6,0,1.1-0.1,1.7-0.1
		c33.1,42.6,50.7,93.7,50.7,147.8c0,38.5-9.2,76.5-26.8,110.5c-24.7-12.6-55-11.1-78.7,5.5c-3.4,2.4-4.2,7.1-1.8,10.4
		c2.4,3.4,7,4.2,10.4,1.8c24.5-17.2,57.8-14.3,79,7c11.7,11.7,18.1,27.2,18.1,43.6c0,10.6-2.7,20.8-7.7,29.8
		c-2.8-9.5-11.3-16.5-21.5-17.2c1.6-4.1,2.5-8.5,2.5-13.1v-11c0-19.4-15.8-35.2-35.2-35.2c-19.4,0-35.2,15.8-35.2,35.2v11
		c0,4.6,0.9,9.1,2.5,13.1c-10.1,0.6-18.5,7.5-21.4,16.8c-4.6-8.5-7.2-18-7.4-27.9c-0.3-10.3,2.1-20.6,6.8-29.7
		c1.9-3.7,0.4-8.2-3.2-10.1c-3.7-1.9-8.2-0.4-10.1,3.2c-5.8,11.4-8.7,24.1-8.4,36.9c0.3,11.7,3.2,22.9,8.4,33
		C332.9,487.6,294.7,496.9,255.9,496.9L255.9,496.9z M414.9,434.4v-11c0-11.2,9.1-20.2,20.2-20.2c11.2,0,20.2,9.1,20.2,20.2v11
		c0,11.2-9.1,20.2-20.2,20.2C424,454.6,414.9,445.5,414.9,434.4z M395,481.5v-10.1c0-4.9,4-9,9-9h10c5.9,4.5,13.3,7.2,21.3,7.2
		s15.3-2.7,21.3-7.2h10c4.9,0,9,4,9,9v10.4c-11.2,9.5-25.2,14.8-40,14.8C420.3,496.6,406.2,491.2,395,481.5z"/>
	<path class="st0" d="M304.1,275.5c-2.9,2.9-2.9,7.7,0,10.6c2.9,2.9,7.7,2.9,10.6,0l23.3-23.3c20.7-20.7,20.7-54.5,0-75.2
		c-10-10-23.4-15.6-37.6-15.6s-27.5,5.5-37.6,15.6l-6.9,6.9l-6.9-6.9c-10-10-23.4-15.6-37.6-15.6c-14.2,0-27.5,5.5-37.6,15.6
		c-20.7,20.7-20.7,54.5,0,75.2l73.4,73.4c2.3,2.3,5.4,3.6,8.7,3.6c3.3,0,6.3-1.3,8.7-3.6l27.1-27.1c2.9-2.9,2.9-7.7,0-10.6
		c-2.9-2.9-7.7-2.9-10.6,0l-25.1,25.1l-71.5-71.5c-14.9-14.9-14.9-39.1,0-54c14.9-14.9,39.1-14.9,54,0l12.2,12.2
		c1.4,1.4,3.3,2.2,5.3,2.2c2,0,3.9-0.8,5.3-2.2l12.2-12.2c7.2-7.2,16.8-11.2,27-11.2c10.2,0,19.8,4,27,11.2
		c7.2,7.2,11.2,16.8,11.2,27c0,10.2-4,19.8-11.2,27L304.1,275.5z"/>
	<path class="st0" d="M353.1,158.6c-49.1-49.1-127.4-54-182.2-11.5c-3.3,2.5-3.9,7.3-1.3,10.5c2.5,3.3,7.3,3.9,10.5,1.3
		c48.8-38,118.6-33.6,162.4,10.2c48,48,48,126,0,174s-126,48-174,0c-43.8-43.8-48.2-113.6-10.2-162.4c2.5-3.3,2-8-1.3-10.5
		c-3.3-2.5-8-2-10.5,1.3c-42.6,54.7-37.7,133.1,11.5,182.2c26.9,26.9,62.2,40.4,97.6,40.4c35.3,0,70.7-13.5,97.6-40.4
		C406.9,299.9,406.9,212.4,353.1,158.6L353.1,158.6z"/>
</g>
</svg>
